# xmcd
#
# Track frame offsets:
#	150
#	14970
#	31752
#	45907
#	58985
#	76047
#	87137
#	104775
#	115825
#	128650
#	145227
#	157732
#	172480
#	184910
#
# Disc length: 2637 seconds
#
# Revision: 0
# Processed by: cddbd v1.5.2PL0 Copyright (c) Steve Scherf et al.
# Submitted via: EZCDAudioConverter 3.1.5.1
#
DISCID=ba0a4b0e
DTITLE=Σωτηρία Μπέλλου - Μεγάλες Επιτυχίες
DYEAR=1994
DGENRE=Ρεμπέτικα
TTITLE0=Χωρίσαμε Ένα Δειλινό
TTITLE1=Σαν Απόκληρος Γυρίζω
TTITLE2=Απόψε Θα Πεθάνει Ο Χάρος
TTITLE3=Χωρίς Παλτό
TTITLE4=Ο Ναύτης
TTITLE5=Βαγγελιώ Δεν Είσαι Εν Τάξει
TTITLE6=	Καρδιά Παραπονιάρα
TTITLE7=	Για Κοίτα Κόσμε Ένα Κορμί
TTITLE8=	Ένας Σατράπης Θηλυκός
TTITLE9=	Μη Μου Ξαναφύγεις Πια
TTITLE10=	Όταν Πίνεις Στην Ταβέρνα
TTITLE11=	Μεσάνυχτα Βαθειά
TTITLE12=	Είμαι Ένα Παλιόπαιδο
TTITLE13=Λίγα Ψίχουλα Αγάπης Σου Γυρεύω
EXTD=
EXTT0=
EXTT1=
EXTT2=
EXTT3=
EXTT4=
EXTT5=
EXTT6=
EXTT7=
EXTT8=
EXTT9=
EXTT10=
EXTT11=
EXTT12=
EXTT13=
PLAYORDER=
